<mxfile host="app.diagrams.net" modified="2021-08-19T09:56:39.010Z" agent="5.0 (Windows NT 10.0; Win64; x64) AppleWebKit/537.36 (KHTML, like Gecko) Chrome/92.0.4515.159 Safari/537.36" etag="h0vNiPDlGBili3_-p8n8" version="14.7.1" type="github">
  <diagram name="Architecture" id="Architecture">
    <mxGraphModel dx="868" dy="492" grid="1" gridSize="10" guides="1" tooltips="1" connect="1" arrows="1" fold="1" page="1" pageScale="1" pageWidth="850" pageHeight="1100" math="0" shadow="0">
      <root>
        <mxCell id="0" />
        <mxCell id="1" parent="0" />
        <mxCell id="PjaEeioHZseRxcnawcMe-200" value="" style="shape=image;imageAspect=0;aspect=fixed;verticalLabelPosition=bottom;verticalAlign=top;fontSize=12;strokeColor=#000000;image=https://www.jfrog.com/confluence/download/attachments/46107468/RTF?version=2&amp;modificationDate=1572965730000&amp;api=v2;" parent="1" vertex="1">
          <mxGeometry x="150" y="126" width="60" height="60" as="geometry" />
        </mxCell>
        <mxCell id="PjaEeioHZseRxcnawcMe-180" value="" style="shape=image;imageAspect=0;aspect=fixed;verticalLabelPosition=bottom;verticalAlign=top;fontSize=12;strokeColor=#000000;image=https://www.opc-router.de/wp-content/uploads/2021/03/mongodb_thumbnail.png;" parent="1" vertex="1">
          <mxGeometry x="635" y="304.15" width="59" height="79.35" as="geometry" />
        </mxCell>
        <mxCell id="PjaEeioHZseRxcnawcMe-181" value="&lt;p style=&quot;margin-left: 0 ; margin-right: 0 ; margin-top: 0px ; margin-bottom: 0px ; text-indent: 0 ; direction: ltr&quot;&gt;&lt;font style=&quot;font-size: 8px ; font-family: &amp;#34;segoe ui&amp;#34; ; color: #595959 ; direction: ltr ; letter-spacing: 0px ; line-height: 120% ; opacity: 1&quot;&gt;&lt;br&gt;&lt;/font&gt;&lt;/p&gt;" style="verticalAlign=bottom;align=left;vsdxID=24;fillColor=none;gradientColor=none;shape=stencil(nZBLDoAgDERP0z3SIyjew0SURgSD+Lu9kMZoXLhwN9O+tukAlrNpJg1SzDH4QW/URgNYgZTkjA4UkwJUgGXng+6DX1zLfmoymdXo17xh5zmRJ6Q42BWCfc2oJfdAr+Yv+AP9Cb7OJ3H/2JG1HNGz/84klThPVCc=);strokeColor=#bfbfbf;spacingBottom=-1;spacingRight=-1;labelBackgroundColor=none;rounded=0;html=1;whiteSpace=wrap;" parent="1" vertex="1">
          <mxGeometry x="617" y="252" width="95" height="166" as="geometry" />
        </mxCell>
        <mxCell id="Cpq1ZpIzhN0V-iwIdP6c-247" style="vsdxID=182;gradientColor=none;shape=stencil(nZBLDoAgDERP0z3SIyjew0SURgSD+Lu9kMZoXLhwN9O+tukAlrNpJg1SzDH4QW/URgNYgZTkjA4UkwJUgGXng+6DX1zLfmoymdXo17xh5zmRJ6Q42BWCfc2oJfdAr+Yv+AP9Cb7OJ3H/2JG1HNGz/84klThPVCc=);dashed=1;labelBackgroundColor=#FFFFFF;rounded=0;html=1;whiteSpace=wrap;strokeWidth=1;perimeterSpacing=0;fillColor=none;shadow=0;" parent="1" vertex="1">
          <mxGeometry x="64" y="190" width="680" height="380" as="geometry" />
        </mxCell>
        <mxCell id="24" value="&lt;p style=&quot;margin-left: 0 ; margin-right: 0 ; margin-top: 0px ; margin-bottom: 0px ; text-indent: 0 ; direction: ltr&quot;&gt;&lt;font style=&quot;font-size: 8px ; font-family: &amp;#34;segoe ui&amp;#34; ; color: #595959 ; direction: ltr ; letter-spacing: 0px ; line-height: 120% ; opacity: 1&quot;&gt;&lt;br&gt;&lt;/font&gt;&lt;/p&gt;" style="verticalAlign=bottom;align=left;vsdxID=24;fillColor=none;gradientColor=none;shape=stencil(nZBLDoAgDERP0z3SIyjew0SURgSD+Lu9kMZoXLhwN9O+tukAlrNpJg1SzDH4QW/URgNYgZTkjA4UkwJUgGXng+6DX1zLfmoymdXo17xh5zmRJ6Q42BWCfc2oJfdAr+Yv+AP9Cb7OJ3H/2JG1HNGz/84klThPVCc=);strokeColor=#bfbfbf;spacingBottom=-1;spacingRight=-1;labelBackgroundColor=none;rounded=0;html=1;whiteSpace=wrap;" parent="1" vertex="1">
          <mxGeometry x="330" y="252" width="95" height="166" as="geometry" />
        </mxCell>
        <mxCell id="25" value="&lt;p style=&quot;margin-left: 0 ; margin-right: 0 ; margin-top: 0px ; margin-bottom: 0px ; text-indent: 0 ; direction: ltr&quot;&gt;&lt;font style=&quot;font-size: 8px ; font-family: &amp;#34;segoe ui&amp;#34; ; color: #595959 ; direction: ltr ; letter-spacing: 0px ; line-height: 120% ; opacity: 1&quot;&gt;&lt;br&gt;&lt;/font&gt;&lt;/p&gt;" style="verticalAlign=bottom;align=left;vsdxID=26;fillColor=none;gradientColor=none;shape=stencil(nZBLDoAgDERP0z3SIyjew0SURgSD+Lu9kMZoXLhwN9O+tukAlrNpJg1SzDH4QW/URgNYgZTkjA4UkwJUgGXng+6DX1zLfmoymdXo17xh5zmRJ6Q42BWCfc2oJfdAr+Yv+AP9Cb7OJ3H/2JG1HNGz/84klThPVCc=);strokeColor=#bfbfbf;spacingBottom=-1;spacingRight=-1;labelBackgroundColor=none;rounded=0;html=1;whiteSpace=wrap;" parent="1" vertex="1">
          <mxGeometry x="431" y="252" width="179" height="166" as="geometry" />
        </mxCell>
        <mxCell id="27" value="&lt;font style=&quot;font-size: 12px ; font-family: &amp;#34;segoe ui&amp;#34; ; color: #000000 ; direction: ltr ; letter-spacing: 0px ; line-height: 120% ; opacity: 1&quot;&gt;Web server&lt;br&gt;&lt;/font&gt;" style="verticalAlign=middle;align=center;vsdxID=29;fillColor=none;gradientColor=none;shape=stencil(nZBLDoAgDERP0z3SIyjew0SURgSD+Lu9kMZoXLhwN9O+tukAlrNpJg1SzDH4QW/URgNYgZTkjA4UkwJUgGXng+6DX1zLfmoymdXo17xh5zmRJ6Q42BWCfc2oJfdAr+Yv+AP9Cb7OJ3H/2JG1HNGz/84klThPVCc=);strokeColor=none;labelBackgroundColor=none;rounded=0;html=1;whiteSpace=wrap;" parent="1" vertex="1">
          <mxGeometry x="330" y="252" width="95" height="19" as="geometry" />
        </mxCell>
        <mxCell id="28" value="&lt;font style=&quot;font-size: 12px ; font-family: &amp;#34;segoe ui&amp;#34; ; color: #000000 ; direction: ltr ; letter-spacing: 0px ; line-height: 120% ; opacity: 1&quot;&gt;App server&lt;br&gt;&lt;/font&gt;" style="verticalAlign=middle;align=center;vsdxID=30;fillColor=none;gradientColor=none;shape=stencil(nZBLDoAgDERP0z3SIyjew0SURgSD+Lu9kMZoXLhwN9O+tukAlrNpJg1SzDH4QW/URgNYgZTkjA4UkwJUgGXng+6DX1zLfmoymdXo17xh5zmRJ6Q42BWCfc2oJfdAr+Yv+AP9Cb7OJ3H/2JG1HNGz/84klThPVCc=);strokeColor=none;labelBackgroundColor=none;rounded=0;html=1;whiteSpace=wrap;" parent="1" vertex="1">
          <mxGeometry x="431" y="252" width="159" height="19" as="geometry" />
        </mxCell>
        <mxCell id="159" style="vsdxID=111;edgeStyle=none;dashed=1;startArrow=none;endArrow=block;startSize=5;endSize=2;strokeColor=#2e75b6;spacingTop=0;spacingBottom=0;spacingLeft=0;spacingRight=0;verticalAlign=middle;html=1;labelBackgroundColor=#ffffff;rounded=0;" parent="1" edge="1">
          <mxGeometry relative="1" as="geometry">
            <mxPoint x="-1" as="offset" />
            <Array as="points" />
            <mxPoint x="495" y="334" as="sourcePoint" />
            <mxPoint x="554" y="334" as="targetPoint" />
          </mxGeometry>
        </mxCell>
        <mxCell id="162" style="vsdxID=134;edgeStyle=none;startArrow=block;endArrow=none;startSize=2;endSize=2;strokeColor=#0078d7;spacingTop=0;spacingBottom=0;spacingLeft=0;spacingRight=0;verticalAlign=middle;html=1;labelBackgroundColor=#ffffff;rounded=0;entryX=0.967;entryY=0.519;entryDx=0;entryDy=0;entryPerimeter=0;" parent="1" edge="1">
          <mxGeometry relative="1" as="geometry">
            <Array as="points" />
            <mxPoint x="350" y="336" as="sourcePoint" />
            <mxPoint x="281.18499999999995" y="336.68399999999997" as="targetPoint" />
          </mxGeometry>
        </mxCell>
        <mxCell id="163" style="vsdxID=174;edgeStyle=none;startArrow=block;endArrow=none;startSize=2;endSize=2;strokeColor=#0078d7;spacingTop=0;spacingBottom=0;spacingLeft=0;spacingRight=0;verticalAlign=middle;html=1;labelBackgroundColor=#ffffff;rounded=0;entryX=1;entryY=0.5;entryDx=0;entryDy=0;" parent="1" target="119" edge="1">
          <mxGeometry relative="1" as="geometry">
            <Array as="points" />
            <mxPoint x="430" y="336" as="sourcePoint" />
            <mxPoint x="413" y="336" as="targetPoint" />
          </mxGeometry>
        </mxCell>
        <mxCell id="51" value="&lt;font style=&quot;font-size: 8px ; font-family: &amp;#34;segoe ui&amp;#34; ; color: #2e75b6 ; direction: ltr ; letter-spacing: 0px ; line-height: 120% ; opacity: 1&quot;&gt;Multiple instances&lt;br&gt;&lt;/font&gt;" style="verticalAlign=middle;align=center;vsdxID=168;fillColor=none;gradientColor=none;shape=stencil(nZBLDoAgDERP0z3SIyjew0SURgSD+Lu9kMZoXLhwN9O+tukAlrNpJg1SzDH4QW/URgNYgZTkjA4UkwJUgGXng+6DX1zLfmoymdXo17xh5zmRJ6Q42BWCfc2oJfdAr+Yv+AP9Cb7OJ3H/2JG1HNGz/84klThPVCc=);strokeColor=none;labelBackgroundColor=none;rounded=0;html=1;whiteSpace=wrap;" parent="1" vertex="1">
          <mxGeometry x="494" y="335" width="60" height="19" as="geometry" />
        </mxCell>
        <mxCell id="88" value="&lt;div style=&quot;text-align: left&quot;&gt;&lt;span style=&quot;color: rgb(63 , 63 , 63) ; font-family: &amp;#34;segoe ui&amp;#34; ; font-size: 11px ; letter-spacing: 0px&quot;&gt;pull/push artifacts&lt;/span&gt;&lt;/div&gt;" style="verticalAlign=middle;align=center;vsdxID=275;fillColor=none;gradientColor=none;shape=stencil(nZBLDoAgDERP0z3SIyjew0SURgSD+Lu9kMZoXLhwN9O+tukAlrNpJg1SzDH4QW/URgNYgZTkjA4UkwJUgGXng+6DX1zLfmoymdXo17xh5zmRJ6Q42BWCfc2oJfdAr+Yv+AP9Cb7OJ3H/2JG1HNGz/84klThPVCc=);strokeColor=none;labelBackgroundColor=none;rounded=0;html=1;whiteSpace=wrap;" parent="1" vertex="1">
          <mxGeometry x="184" y="404" width="47" height="28" as="geometry" />
        </mxCell>
        <mxCell id="101" style="vsdxID=301;fillColor=none;gradientColor=none;labelBackgroundColor=none;rounded=0;strokeColor=none;html=1;whiteSpace=wrap;" parent="1" vertex="1">
          <mxGeometry x="444" y="313" width="47.35000000000002" height="46.920000000000044" as="geometry" />
        </mxCell>
        <mxCell id="102" value="" style="verticalAlign=top;align=center;vsdxID=302;fillColor=#FFFFFF;gradientColor=none;shape=stencil(vVHLDsIgEPwajiQI6RfU+h8bu22JCGRB2/69kG1iazx58DazM/vIjjBtmiCi0CplCjecbZ8nYc5Ca+snJJsLEqYTph0C4Ujh4XvmEaqzont41gkL96naodXKrGF6YSfQtUi0OXXDVlqPfJNP6usotUhYbJIUMmQb/GGrAxpRljVycDBuc1hKM2LclX8/7H9nFfB+82Cd45T2+mcspcSRmu4F);strokeColor=#7f7f7f;labelBackgroundColor=none;rounded=0;html=1;whiteSpace=wrap;" parent="101" vertex="1">
          <mxGeometry width="46" height="46" as="geometry" />
        </mxCell>
        <mxCell id="PjaEeioHZseRxcnawcMe-194" value="" style="shape=image;imageAspect=0;aspect=fixed;verticalLabelPosition=bottom;verticalAlign=top;fontSize=12;strokeColor=#000000;image=https://user-images.githubusercontent.com/3613230/41752586-476b0b24-7596-11e8-95fe-8fd3faa21e8a.png;" parent="101" vertex="1">
          <mxGeometry x="-7.649999999999977" y="-1.6099999999999568" width="55" height="48.53" as="geometry" />
        </mxCell>
        <mxCell id="119" style="vsdxID=343;fillColor=none;gradientColor=none;labelBackgroundColor=none;rounded=0;strokeColor=none;html=1;whiteSpace=wrap;" parent="1" vertex="1">
          <mxGeometry x="354" y="313" width="46" height="46" as="geometry" />
        </mxCell>
        <mxCell id="120" value="" style="verticalAlign=top;align=center;vsdxID=337;fillColor=#FFFFFF;gradientColor=none;shape=stencil(vVHLDsIgEPwajiQI6RfU+h8bu22JCGRB2/69kG1iazx58DazM/vIjjBtmiCi0CplCjecbZ8nYc5Ca+snJJsLEqYTph0C4Ujh4XvmEaqzont41gkL96naodXKrGF6YSfQtUi0OXXDVlqPfJNP6usotUhYbJIUMmQb/GGrAxpRljVycDBuc1hKM2LclX8/7H9nFfB+82Cd45T2+mcspcSRmu4F);strokeColor=#7f7f7f;labelBackgroundColor=none;rounded=0;html=1;whiteSpace=wrap;" parent="119" vertex="1">
          <mxGeometry width="46" height="46" as="geometry" />
        </mxCell>
        <mxCell id="150" value="&lt;font style=&quot;font-size: 11px ; font-family: &amp;#34;segoe ui&amp;#34; ; direction: ltr ; letter-spacing: 0px ; line-height: 120% ; opacity: 1&quot;&gt;Artifactory&lt;br&gt;&lt;/font&gt;" style="verticalAlign=middle;align=center;vsdxID=390;fillColor=none;gradientColor=none;shape=stencil(nZBLDoAgDERP0z3SIyjew0SURgSD+Lu9kMZoXLhwN9O+tukAlrNpJg1SzDH4QW/URgNYgZTkjA4UkwJUgGXng+6DX1zLfmoymdXo17xh5zmRJ6Q42BWCfc2oJfdAr+Yv+AP9Cb7OJ3H/2JG1HNGz/84klThPVCc=);strokeColor=none;labelBackgroundColor=none;rounded=0;html=1;whiteSpace=wrap;" parent="1" vertex="1">
          <mxGeometry x="134" y="155" width="92" height="35" as="geometry" />
        </mxCell>
        <mxCell id="Cpq1ZpIzhN0V-iwIdP6c-179" value="&lt;font style=&quot;font-size: 12px&quot;&gt;TODO API&lt;/font&gt;" style="text;html=1;strokeColor=none;fillColor=none;align=center;verticalAlign=middle;whiteSpace=wrap;rounded=0;fontSize=12;" parent="1" vertex="1">
          <mxGeometry x="471.5" y="383.5" width="98" height="30" as="geometry" />
        </mxCell>
        <mxCell id="Cpq1ZpIzhN0V-iwIdP6c-241" value="" style="shape=image;verticalLabelPosition=bottom;labelBackgroundColor=#ffffff;verticalAlign=top;aspect=fixed;imageAspect=0;image=https://cdn4.iconfinder.com/data/icons/iconsimple-logotypes/512/github-512.png;" parent="1" vertex="1">
          <mxGeometry x="92.5" y="126" width="50" height="50" as="geometry" />
        </mxCell>
        <mxCell id="Cpq1ZpIzhN0V-iwIdP6c-243" style="vsdxID=134;edgeStyle=none;startArrow=block;endArrow=none;startSize=2;endSize=2;strokeColor=#0078d7;spacingTop=0;spacingBottom=0;spacingLeft=0;spacingRight=0;verticalAlign=middle;html=1;labelBackgroundColor=#ffffff;rounded=0;exitX=0.497;exitY=0.009;exitDx=0;exitDy=0;exitPerimeter=0;" parent="1" edge="1">
          <mxGeometry relative="1" as="geometry">
            <Array as="points" />
            <mxPoint x="255.33500000000004" y="308.32399999999996" as="sourcePoint" />
            <mxPoint x="255.03039486100022" y="158" as="targetPoint" />
          </mxGeometry>
        </mxCell>
        <mxCell id="52" value="&lt;font style=&quot;font-size:11px;font-family:Segoe UI;color:#000000;direction:ltr;letter-spacing:0px;line-height:120%;opacity:1&quot;&gt;Client Apps&lt;br/&gt;&lt;/font&gt;" style="verticalAlign=middle;align=center;vsdxID=181;fillColor=none;gradientColor=none;shape=stencil(nZBLDoAgDERP0z3SIyjew0SURgSD+Lu9kMZoXLhwN9O+tukAlrNpJg1SzDH4QW/URgNYgZTkjA4UkwJUgGXng+6DX1zLfmoymdXo17xh5zmRJ6Q42BWCfc2oJfdAr+Yv+AP9Cb7OJ3H/2JG1HNGz/84klThPVCc=);strokeColor=none;labelBackgroundColor=none;rounded=0;html=1;whiteSpace=wrap;" parent="1" vertex="1">
          <mxGeometry x="284" y="161.5" width="38" height="20" as="geometry" />
        </mxCell>
        <mxCell id="Cpq1ZpIzhN0V-iwIdP6c-245" value="&lt;font style=&quot;font-size: 11px ; font-family: &amp;#34;segoe ui&amp;#34; ; color: #000000 ; direction: ltr ; letter-spacing: 0px ; line-height: 120% ; opacity: 1&quot;&gt;Github&lt;br&gt;&lt;/font&gt;" style="verticalAlign=middle;align=center;vsdxID=181;fillColor=none;gradientColor=none;shape=stencil(nZBLDoAgDERP0z3SIyjew0SURgSD+Lu9kMZoXLhwN9O+tukAlrNpJg1SzDH4QW/URgNYgZTkjA4UkwJUgGXng+6DX1zLfmoymdXo17xh5zmRJ6Q42BWCfc2oJfdAr+Yv+AP9Cb7OJ3H/2JG1HNGz/84klThPVCc=);strokeColor=none;labelBackgroundColor=none;rounded=0;html=1;whiteSpace=wrap;" parent="1" vertex="1">
          <mxGeometry x="60" y="169" width="38" height="20" as="geometry" />
        </mxCell>
        <mxCell id="153" value="&lt;font style=&quot;font-size:11px;font-family:Segoe UI;color:#000000;direction:ltr;letter-spacing:0px;line-height:120%;opacity:1&quot;&gt;CI/CD&lt;br/&gt;&lt;/font&gt;" style="verticalAlign=top;align=center;vsdxID=274;fillColor=#f2f2f2;gradientColor=none;shape=stencil(nZBLDoAgDERP0z3SIyjew0SURgSD+Lu9kMZoXLhwN9O+tukAlrNpJg1SzDH4QW/URgNYgZTkjA4UkwJUgGXng+6DX1zLfmoymdXo17xh5zmRJ6Q42BWCfc2oJfdAr+Yv+AP9Cb7OJ3H/2JG1HNGz/84klThPVCc=);strokeColor=#bfbfbf;labelBackgroundColor=none;rounded=0;html=1;whiteSpace=wrap;" parent="1" vertex="1">
          <mxGeometry x="81" y="406" width="69" height="114" as="geometry" />
        </mxCell>
        <mxCell id="155" value="&lt;font style=&quot;font-size: 11px ; font-family: &amp;#34;segoe ui&amp;#34; ; color: #0078d7 ; direction: ltr ; letter-spacing: 0px ; line-height: 120% ; opacity: 1&quot;&gt;Jenkins&lt;br&gt;&lt;/font&gt;" style="verticalAlign=middle;align=center;vsdxID=173;fillColor=none;gradientColor=none;shape=stencil(nZBLDoAgDERP0z3SIyjew0SURgSD+Lu9kMZoXLhwN9O+tukAlrNpJg1SzDH4QW/URgNYgZTkjA4UkwJUgGXng+6DX1zLfmoymdXo17xh5zmRJ6Q42BWCfc2oJfdAr+Yv+AP9Cb7OJ3H/2JG1HNGz/84klThPVCc=);strokeColor=none;labelBackgroundColor=none;rounded=0;html=1;whiteSpace=wrap;" parent="1" vertex="1">
          <mxGeometry x="80" y="485" width="70" height="35" as="geometry" />
        </mxCell>
        <mxCell id="R70YHDZ5rD5ZLVwwbKBx-177" style="vsdxID=134;edgeStyle=none;startArrow=block;endArrow=none;startSize=2;endSize=2;strokeColor=#0078d7;spacingTop=0;spacingBottom=0;spacingLeft=0;spacingRight=0;verticalAlign=middle;html=1;labelBackgroundColor=#ffffff;rounded=0;entryX=0.5;entryY=1;entryDx=0;entryDy=0;" parent="1" target="Cpq1ZpIzhN0V-iwIdP6c-241" edge="1">
          <mxGeometry relative="1" as="geometry">
            <Array as="points" />
            <mxPoint x="117" y="407" as="sourcePoint" />
            <mxPoint x="117.00039486100033" y="186" as="targetPoint" />
          </mxGeometry>
        </mxCell>
        <mxCell id="y_L1rLnan1oXnGs_XWC_-179" style="vsdxID=174;edgeStyle=none;startArrow=block;endArrow=none;startSize=2;endSize=2;strokeColor=#0078d7;spacingTop=0;spacingBottom=0;spacingLeft=0;spacingRight=0;verticalAlign=middle;html=1;labelBackgroundColor=#ffffff;rounded=0;" parent="1" edge="1">
          <mxGeometry relative="1" as="geometry">
            <Array as="points">
              <mxPoint x="610" y="336" />
            </Array>
            <mxPoint x="640" y="336" as="sourcePoint" />
            <mxPoint x="630" y="336" as="targetPoint" />
          </mxGeometry>
        </mxCell>
        <mxCell id="XGJTlnXFi1ueoiBMRHXA-184" value="&lt;font style=&quot;font-size: 12px&quot;&gt;TODO UI&lt;/font&gt;" style="text;html=1;strokeColor=none;fillColor=none;align=center;verticalAlign=middle;whiteSpace=wrap;rounded=0;fontSize=12;" parent="1" vertex="1">
          <mxGeometry x="333" y="383.5" width="98" height="30" as="geometry" />
        </mxCell>
        <mxCell id="OXFVEwI2tE2bpbJsLajP-177" value="" style="shape=image;imageAspect=0;aspect=fixed;verticalLabelPosition=bottom;verticalAlign=top;image=https://www.jenkins.io/images/logos/jenkins/256.png;" parent="1" vertex="1">
          <mxGeometry x="92.5" y="432" width="45" height="62.27" as="geometry" />
        </mxCell>
        <mxCell id="PjaEeioHZseRxcnawcMe-177" value="" style="shape=image;imageAspect=0;aspect=fixed;verticalLabelPosition=bottom;verticalAlign=top;image=https://static.thenounproject.com/png/754075-200.png;" parent="1" vertex="1">
          <mxGeometry x="672.27" y="118.5" width="76" height="76" as="geometry" />
        </mxCell>
        <mxCell id="PjaEeioHZseRxcnawcMe-178" value="" style="shape=image;imageAspect=0;aspect=fixed;verticalLabelPosition=bottom;verticalAlign=top;strokeColor=#000000;image=https://static-00.iconduck.com/assets.00/virtual-machines-icon-512x464-nlf7gddb.png;" parent="1" vertex="1">
          <mxGeometry x="330" y="228.43" width="26" height="23.57" as="geometry" />
        </mxCell>
        <mxCell id="26" value="&lt;p style=&quot;margin: 0px ; text-indent: 0px ; direction: ltr&quot;&gt;&lt;font style=&quot;font-size: 8px ; font-family: &amp;#34;segoe ui&amp;#34; ; color: #595959 ; direction: ltr ; letter-spacing: 0px ; line-height: 120% ; opacity: 1&quot;&gt;&lt;br&gt;&lt;/font&gt;&lt;/p&gt;" style="verticalAlign=bottom;align=right;vsdxID=27;fillColor=none;gradientColor=none;shape=stencil(nZBLDoAgDERP0z3SIyjew0SURgSD+Lu9kMZoXLhwN9O+tukAlrNpJg1SzDH4QW/URgNYgZTkjA4UkwJUgGXng+6DX1zLfmoymdXo17xh5zmRJ6Q42BWCfc2oJfdAr+Yv+AP9Cb7OJ3H/2JG1HNGz/84klThPVCc=);strokeColor=#bfbfbf;spacingBottom=-1;spacingRight=-1;labelBackgroundColor=none;rounded=0;html=1;whiteSpace=wrap;" parent="1" vertex="1">
          <mxGeometry x="330" y="450" width="380" height="80" as="geometry" />
        </mxCell>
        <mxCell id="29" value="&lt;font style=&quot;font-size:12px;font-family:Segoe UI;color:#000000;direction:ltr;letter-spacing:0px;line-height:120%;opacity:1&quot;&gt;Utility services&lt;br/&gt;&lt;/font&gt;" style="verticalAlign=middle;align=center;vsdxID=31;fillColor=none;gradientColor=none;shape=stencil(nZBLDoAgDERP0z3SIyjew0SURgSD+Lu9kMZoXLhwN9O+tukAlrNpJg1SzDH4QW/URgNYgZTkjA4UkwJUgGXng+6DX1zLfmoymdXo17xh5zmRJ6Q42BWCfc2oJfdAr+Yv+AP9Cb7OJ3H/2JG1HNGz/84klThPVCc=);strokeColor=none;labelBackgroundColor=none;rounded=0;html=1;whiteSpace=wrap;" parent="1" vertex="1">
          <mxGeometry x="480.5" y="431" width="380" height="19" as="geometry" />
        </mxCell>
        <mxCell id="113" style="vsdxID=329;fillColor=none;gradientColor=none;labelBackgroundColor=none;rounded=0;strokeColor=none;html=1;whiteSpace=wrap;" parent="1" vertex="1">
          <mxGeometry x="349" y="464.07" width="38.38383838383839" height="36.90140845070423" as="geometry" />
        </mxCell>
        <mxCell id="114" value="" style="verticalAlign=top;align=center;vsdxID=330;fillColor=#FFFFFF;gradientColor=none;shape=stencil(vVHLDsIgEPwajiQI6RfU+h8bu22JCGRB2/69kG1iazx58DazM/vIjjBtmiCi0CplCjecbZ8nYc5Ca+snJJsLEqYTph0C4Ujh4XvmEaqzont41gkL96naodXKrGF6YSfQtUi0OXXDVlqPfJNP6usotUhYbJIUMmQb/GGrAxpRljVycDBuc1hKM2LclX8/7H9nFfB+82Cd45T2+mcspcSRmu4F);strokeColor=#7f7f7f;labelBackgroundColor=none;rounded=0;html=1;whiteSpace=wrap;" parent="113" vertex="1">
          <mxGeometry width="38.38383838383839" height="36.90140845070423" as="geometry" />
        </mxCell>
        <mxCell id="115" style="vsdxID=331;fillColor=none;gradientColor=none;labelBackgroundColor=none;rounded=0;strokeColor=none;html=1;whiteSpace=wrap;" parent="113" vertex="1">
          <mxGeometry x="10.847606499780413" y="8.022045315370486" width="16.68862538427756" height="19.252908756889163" as="geometry" />
        </mxCell>
        <mxCell id="116" style="vsdxID=332;fillColor=#dbeef3;gradientColor=none;shape=stencil(lZDRDoIwDEW/pq+krBh8R/wPEoZrnBsZE/Xv3WyMYDTGt9v23Ka9QM1kulGDwikGf9QX7qMB2oFS7IwOHJMCaoGawQd9CP7seqnHLpNZnfycN1zFVyJmj8Kb1FVdYP3o7AW37Bb4Zk3jd/KvtdW2wHJleN71Ef95dBKvhwe2VvJazt8DSi0Jl9o7);strokeColor=none;spacingTop=-3;spacingBottom=-3;spacingLeft=-3;spacingRight=-3;labelBackgroundColor=none;rounded=0;html=1;whiteSpace=wrap;" parent="115" vertex="1">
          <mxGeometry width="15.854194115063683" height="10.42865890998163" as="geometry" />
        </mxCell>
        <mxCell id="117" style="vsdxID=333;fillColor=#dbeef3;gradientColor=none;shape=stencil(UzV2Ls5ILEhVNTIoLinKz04tz0wpyVA1dlE1MsrMy0gtyiwBslSNXVWNndPyi1LTi/JL81Ig/IJEkEoQKze/DGRCBUSfoYEBSI+RQSUq3w2iOCczD0mxKapaPCpRFVpa6pkZIisGMhAOSsvMyYH4B1ke3QNAIYjnjV0B);strokeColor=#556a8a;spacingTop=-3;spacingBottom=-3;spacingLeft=-3;spacingRight=-3;labelBackgroundColor=none;rounded=0;html=1;whiteSpace=wrap;" parent="115" vertex="1">
          <mxGeometry width="16.68862538427756" height="4.813227189222291" as="geometry" />
        </mxCell>
        <mxCell id="118" style="vsdxID=334;fillColor=#dbeef3;gradientColor=none;shape=stencil(jZHdDsIgDIWfprdLpUMfYM73WDImRISF4d/bCzbGSTLd3Wn79eSkBWom3Y0KBE4x+JO6mT5qoD0IYZxWwcSkgFqgZvBBHYO/uJ7rsctkVmd/zQ533sO8IfDB1VZW9e7VOTBsjZvB8pveIC6z7+FK6xL/4VykoLqStEyvtv0TN4nPDQdjLb9gPi9vnlr8L2qf);strokeColor=#556a8a;spacingTop=-3;spacingBottom=-3;spacingLeft=-3;spacingRight=-3;labelBackgroundColor=none;rounded=0;html=1;whiteSpace=wrap;" parent="115" vertex="1">
          <mxGeometry y="4.813227189222291" width="15.854194115063683" height="14.439681567666875" as="geometry" />
        </mxCell>
        <mxCell id="174" style="vsdxID=335;edgeStyle=none;startArrow=none;endArrow=none;startSize=5;endSize=5;strokeColor=#556a8a;spacingTop=0;spacingBottom=0;spacingLeft=0;spacingRight=0;verticalAlign=middle;html=1;labelBackgroundColor=#ffffff;rounded=0;" parent="115" edge="1">
          <mxGeometry relative="1" as="geometry">
            <Array as="points" />
            <mxPoint x="8.34431269213878" y="9.626454378444581" as="sourcePoint" />
            <mxPoint x="8.34431269213878" y="19.252908756889163" as="targetPoint" />
          </mxGeometry>
        </mxCell>
        <mxCell id="145" value="&lt;font style=&quot;font-family: &amp;quot;segoe ui&amp;quot;; color: rgb(89, 89, 89); direction: ltr; letter-spacing: 0px; line-height: 120%; opacity: 1; font-size: 12px;&quot;&gt;&lt;font style=&quot;font-size: 12px;&quot;&gt;Elasticsearch&lt;/font&gt;&lt;br style=&quot;font-size: 12px;&quot;&gt;&lt;/font&gt;" style="verticalAlign=middle;align=left;vsdxID=382;fillColor=none;gradientColor=none;shape=stencil(nZBLDoAgDERP0z3SIyjew0SURgSD+Lu9kMZoXLhwN9O+tukAlrNpJg1SzDH4QW/URgNYgZTkjA4UkwJUgGXng+6DX1zLfmoymdXo17xh5zmRJ6Q42BWCfc2oJfdAr+Yv+AP9Cb7OJ3H/2JG1HNGz/84klThPVCc=);strokeColor=none;labelBackgroundColor=none;rounded=0;html=1;whiteSpace=wrap;fontSize=12;" parent="1" vertex="1">
          <mxGeometry x="392.3838383838384" y="472.3701408450704" width="151.61616161616163" height="20.295774647887328" as="geometry" />
        </mxCell>
        <mxCell id="Cpq1ZpIzhN0V-iwIdP6c-182" style="vsdxID=329;fillColor=none;gradientColor=none;labelBackgroundColor=none;rounded=0;strokeColor=none;html=1;whiteSpace=wrap;" parent="1" vertex="1">
          <mxGeometry x="480.5" y="464.0667605633803" width="38.38383838383839" height="36.90140845070423" as="geometry" />
        </mxCell>
        <mxCell id="Cpq1ZpIzhN0V-iwIdP6c-183" value="" style="verticalAlign=top;align=center;vsdxID=330;fillColor=#FFFFFF;gradientColor=none;shape=stencil(vVHLDsIgEPwajiQI6RfU+h8bu22JCGRB2/69kG1iazx58DazM/vIjjBtmiCi0CplCjecbZ8nYc5Ca+snJJsLEqYTph0C4Ujh4XvmEaqzont41gkL96naodXKrGF6YSfQtUi0OXXDVlqPfJNP6usotUhYbJIUMmQb/GGrAxpRljVycDBuc1hKM2LclX8/7H9nFfB+82Cd45T2+mcspcSRmu4F);strokeColor=#7f7f7f;labelBackgroundColor=none;rounded=0;html=1;whiteSpace=wrap;" parent="Cpq1ZpIzhN0V-iwIdP6c-182" vertex="1">
          <mxGeometry width="38.38383838383839" height="36.90140845070423" as="geometry" />
        </mxCell>
        <mxCell id="Cpq1ZpIzhN0V-iwIdP6c-184" style="vsdxID=331;fillColor=none;gradientColor=none;labelBackgroundColor=none;rounded=0;strokeColor=none;html=1;whiteSpace=wrap;" parent="Cpq1ZpIzhN0V-iwIdP6c-182" vertex="1">
          <mxGeometry x="10.847606499780413" y="8.022045315370486" width="16.68862538427756" height="19.252908756889163" as="geometry" />
        </mxCell>
        <mxCell id="Cpq1ZpIzhN0V-iwIdP6c-185" style="vsdxID=332;fillColor=#dbeef3;gradientColor=none;shape=stencil(lZDRDoIwDEW/pq+krBh8R/wPEoZrnBsZE/Xv3WyMYDTGt9v23Ka9QM1kulGDwikGf9QX7qMB2oFS7IwOHJMCaoGawQd9CP7seqnHLpNZnfycN1zFVyJmj8Kb1FVdYP3o7AW37Bb4Zk3jd/KvtdW2wHJleN71Ef95dBKvhwe2VvJazt8DSi0Jl9o7);strokeColor=none;spacingTop=-3;spacingBottom=-3;spacingLeft=-3;spacingRight=-3;labelBackgroundColor=none;rounded=0;html=1;whiteSpace=wrap;" parent="Cpq1ZpIzhN0V-iwIdP6c-184" vertex="1">
          <mxGeometry width="15.854194115063683" height="10.42865890998163" as="geometry" />
        </mxCell>
        <mxCell id="Cpq1ZpIzhN0V-iwIdP6c-186" style="vsdxID=333;fillColor=#dbeef3;gradientColor=none;shape=stencil(UzV2Ls5ILEhVNTIoLinKz04tz0wpyVA1dlE1MsrMy0gtyiwBslSNXVWNndPyi1LTi/JL81Ig/IJEkEoQKze/DGRCBUSfoYEBSI+RQSUq3w2iOCczD0mxKapaPCpRFVpa6pkZIisGMhAOSsvMyYH4B1ke3QNAIYjnjV0B);strokeColor=#556a8a;spacingTop=-3;spacingBottom=-3;spacingLeft=-3;spacingRight=-3;labelBackgroundColor=none;rounded=0;html=1;whiteSpace=wrap;" parent="Cpq1ZpIzhN0V-iwIdP6c-184" vertex="1">
          <mxGeometry width="16.68862538427756" height="4.813227189222291" as="geometry" />
        </mxCell>
        <mxCell id="Cpq1ZpIzhN0V-iwIdP6c-187" style="vsdxID=334;fillColor=#dbeef3;gradientColor=none;shape=stencil(jZHdDsIgDIWfprdLpUMfYM73WDImRISF4d/bCzbGSTLd3Wn79eSkBWom3Y0KBE4x+JO6mT5qoD0IYZxWwcSkgFqgZvBBHYO/uJ7rsctkVmd/zQ533sO8IfDB1VZW9e7VOTBsjZvB8pveIC6z7+FK6xL/4VykoLqStEyvtv0TN4nPDQdjLb9gPi9vnlr8L2qf);strokeColor=#556a8a;spacingTop=-3;spacingBottom=-3;spacingLeft=-3;spacingRight=-3;labelBackgroundColor=none;rounded=0;html=1;whiteSpace=wrap;" parent="Cpq1ZpIzhN0V-iwIdP6c-184" vertex="1">
          <mxGeometry y="4.813227189222291" width="15.854194115063683" height="14.439681567666875" as="geometry" />
        </mxCell>
        <mxCell id="Cpq1ZpIzhN0V-iwIdP6c-188" style="vsdxID=335;edgeStyle=none;startArrow=none;endArrow=none;startSize=5;endSize=5;strokeColor=#556a8a;spacingTop=0;spacingBottom=0;spacingLeft=0;spacingRight=0;verticalAlign=middle;html=1;labelBackgroundColor=#ffffff;rounded=0;" parent="Cpq1ZpIzhN0V-iwIdP6c-184" edge="1">
          <mxGeometry relative="1" as="geometry">
            <Array as="points" />
            <mxPoint x="8.34431269213878" y="9.626454378444581" as="sourcePoint" />
            <mxPoint x="8.34431269213878" y="19.252908756889163" as="targetPoint" />
          </mxGeometry>
        </mxCell>
        <mxCell id="Cpq1ZpIzhN0V-iwIdP6c-189" style="vsdxID=329;fillColor=none;gradientColor=none;labelBackgroundColor=none;rounded=0;strokeColor=none;html=1;whiteSpace=wrap;" parent="1" vertex="1">
          <mxGeometry x="587.62" y="464.0685915492958" width="38.38383838383839" height="36.90140845070423" as="geometry" />
        </mxCell>
        <mxCell id="Cpq1ZpIzhN0V-iwIdP6c-190" value="" style="verticalAlign=top;align=center;vsdxID=330;fillColor=#FFFFFF;gradientColor=none;shape=stencil(vVHLDsIgEPwajiQI6RfU+h8bu22JCGRB2/69kG1iazx58DazM/vIjjBtmiCi0CplCjecbZ8nYc5Ca+snJJsLEqYTph0C4Ujh4XvmEaqzont41gkL96naodXKrGF6YSfQtUi0OXXDVlqPfJNP6usotUhYbJIUMmQb/GGrAxpRljVycDBuc1hKM2LclX8/7H9nFfB+82Cd45T2+mcspcSRmu4F);strokeColor=#7f7f7f;labelBackgroundColor=none;rounded=0;html=1;whiteSpace=wrap;" parent="Cpq1ZpIzhN0V-iwIdP6c-189" vertex="1">
          <mxGeometry width="38.38383838383839" height="36.90140845070423" as="geometry" />
        </mxCell>
        <mxCell id="Cpq1ZpIzhN0V-iwIdP6c-191" style="vsdxID=331;fillColor=none;gradientColor=none;labelBackgroundColor=none;rounded=0;strokeColor=none;html=1;whiteSpace=wrap;" parent="Cpq1ZpIzhN0V-iwIdP6c-189" vertex="1">
          <mxGeometry x="10.847606499780413" y="8.022045315370486" width="16.68862538427756" height="19.252908756889163" as="geometry" />
        </mxCell>
        <mxCell id="Cpq1ZpIzhN0V-iwIdP6c-192" style="vsdxID=332;fillColor=#dbeef3;gradientColor=none;shape=stencil(lZDRDoIwDEW/pq+krBh8R/wPEoZrnBsZE/Xv3WyMYDTGt9v23Ka9QM1kulGDwikGf9QX7qMB2oFS7IwOHJMCaoGawQd9CP7seqnHLpNZnfycN1zFVyJmj8Kb1FVdYP3o7AW37Bb4Zk3jd/KvtdW2wHJleN71Ef95dBKvhwe2VvJazt8DSi0Jl9o7);strokeColor=none;spacingTop=-3;spacingBottom=-3;spacingLeft=-3;spacingRight=-3;labelBackgroundColor=none;rounded=0;html=1;whiteSpace=wrap;" parent="Cpq1ZpIzhN0V-iwIdP6c-191" vertex="1">
          <mxGeometry width="15.854194115063683" height="10.42865890998163" as="geometry" />
        </mxCell>
        <mxCell id="Cpq1ZpIzhN0V-iwIdP6c-193" style="vsdxID=333;fillColor=#dbeef3;gradientColor=none;shape=stencil(UzV2Ls5ILEhVNTIoLinKz04tz0wpyVA1dlE1MsrMy0gtyiwBslSNXVWNndPyi1LTi/JL81Ig/IJEkEoQKze/DGRCBUSfoYEBSI+RQSUq3w2iOCczD0mxKapaPCpRFVpa6pkZIisGMhAOSsvMyYH4B1ke3QNAIYjnjV0B);strokeColor=#556a8a;spacingTop=-3;spacingBottom=-3;spacingLeft=-3;spacingRight=-3;labelBackgroundColor=none;rounded=0;html=1;whiteSpace=wrap;" parent="Cpq1ZpIzhN0V-iwIdP6c-191" vertex="1">
          <mxGeometry width="16.68862538427756" height="4.813227189222291" as="geometry" />
        </mxCell>
        <mxCell id="Cpq1ZpIzhN0V-iwIdP6c-194" style="vsdxID=334;fillColor=#dbeef3;gradientColor=none;shape=stencil(jZHdDsIgDIWfprdLpUMfYM73WDImRISF4d/bCzbGSTLd3Wn79eSkBWom3Y0KBE4x+JO6mT5qoD0IYZxWwcSkgFqgZvBBHYO/uJ7rsctkVmd/zQ533sO8IfDB1VZW9e7VOTBsjZvB8pveIC6z7+FK6xL/4VykoLqStEyvtv0TN4nPDQdjLb9gPi9vnlr8L2qf);strokeColor=#556a8a;spacingTop=-3;spacingBottom=-3;spacingLeft=-3;spacingRight=-3;labelBackgroundColor=none;rounded=0;html=1;whiteSpace=wrap;" parent="Cpq1ZpIzhN0V-iwIdP6c-191" vertex="1">
          <mxGeometry y="4.813227189222291" width="15.854194115063683" height="14.439681567666875" as="geometry" />
        </mxCell>
        <mxCell id="Cpq1ZpIzhN0V-iwIdP6c-195" style="vsdxID=335;edgeStyle=none;startArrow=none;endArrow=none;startSize=5;endSize=5;strokeColor=#556a8a;spacingTop=0;spacingBottom=0;spacingLeft=0;spacingRight=0;verticalAlign=middle;html=1;labelBackgroundColor=#ffffff;rounded=0;" parent="Cpq1ZpIzhN0V-iwIdP6c-191" edge="1">
          <mxGeometry relative="1" as="geometry">
            <Array as="points" />
            <mxPoint x="8.34431269213878" y="9.626454378444581" as="sourcePoint" />
            <mxPoint x="8.34431269213878" y="19.252908756889163" as="targetPoint" />
          </mxGeometry>
        </mxCell>
        <mxCell id="Cpq1ZpIzhN0V-iwIdP6c-196" value="&lt;font style=&quot;font-family: &amp;quot;segoe ui&amp;quot;; color: rgb(89, 89, 89); direction: ltr; letter-spacing: 0px; line-height: 120%; opacity: 1; font-size: 12px;&quot;&gt;&lt;font style=&quot;font-size: 12px;&quot;&gt;Kibana&lt;/font&gt;&lt;br style=&quot;font-size: 12px;&quot;&gt;&lt;/font&gt;" style="verticalAlign=middle;align=left;vsdxID=382;fillColor=none;gradientColor=none;shape=stencil(nZBLDoAgDERP0z3SIyjew0SURgSD+Lu9kMZoXLhwN9O+tukAlrNpJg1SzDH4QW/URgNYgZTkjA4UkwJUgGXng+6DX1zLfmoymdXo17xh5zmRJ6Q42BWCfc2oJfdAr+Yv+AP9Cb7OJ3H/2JG1HNGz/84klThPVCc=);strokeColor=none;labelBackgroundColor=none;rounded=0;html=1;whiteSpace=wrap;fontSize=12;" parent="1" vertex="1">
          <mxGeometry x="522.8838383838383" y="472.3718309859155" width="151.61616161616163" height="20.295774647887328" as="geometry" />
        </mxCell>
        <mxCell id="Cpq1ZpIzhN0V-iwIdP6c-197" value="&lt;font style=&quot;font-family: &amp;quot;segoe ui&amp;quot;; color: rgb(89, 89, 89); direction: ltr; letter-spacing: 0px; line-height: 120%; opacity: 1; font-size: 12px;&quot;&gt;&lt;font style=&quot;font-size: 12px;&quot;&gt;Filebeat&lt;/font&gt;&lt;br style=&quot;font-size: 12px;&quot;&gt;&lt;/font&gt;" style="verticalAlign=middle;align=left;vsdxID=382;fillColor=none;gradientColor=none;shape=stencil(nZBLDoAgDERP0z3SIyjew0SURgSD+Lu9kMZoXLhwN9O+tukAlrNpJg1SzDH4QW/URgNYgZTkjA4UkwJUgGXng+6DX1zLfmoymdXo17xh5zmRJ6Q42BWCfc2oJfdAr+Yv+AP9Cb7OJ3H/2JG1HNGz/84klThPVCc=);strokeColor=none;labelBackgroundColor=none;rounded=0;html=1;whiteSpace=wrap;fontSize=12;" parent="1" vertex="1">
          <mxGeometry x="629.0038383838385" y="472.3738028169014" width="151.61616161616163" height="20.295774647887328" as="geometry" />
        </mxCell>
        <mxCell id="PjaEeioHZseRxcnawcMe-183" value="" style="shape=image;imageAspect=0;aspect=fixed;verticalLabelPosition=bottom;verticalAlign=top;fontSize=12;strokeColor=#000000;image=https://destatic.blob.core.windows.net/images/nginx.png;" parent="1" vertex="1">
          <mxGeometry x="233" y="311.39" width="46" height="52.23" as="geometry" />
        </mxCell>
        <mxCell id="44" style="vsdxID=126;fillColor=none;gradientColor=none;strokeColor=none;labelBackgroundColor=none;rounded=0;html=1;whiteSpace=wrap;" parent="1" vertex="1">
          <mxGeometry x="232" y="129" width="76.5" height="60" as="geometry" />
        </mxCell>
        <mxCell id="45" style="vsdxID=127;fillColor=#59b4d9;gradientColor=none;shape=stencil(vVLLDsIgEPwajjQUTBPOVf+DWNoSEZot2vr3gqD2YTz04G13dnZnFwaxsm9FJxElvQN7loOqXIvYHlGqTCtBOR8hdkCsrC3IBuzVVDHvRGCG6GJvYcIY+0jooOQeM84yzp/IMZIFnHwVEnmXkTzyITUUGaEReVFm83KS5o9YjKrHYJ1wypqZthbQSOyVcK1FMyv1g5TdCk67aWUmh/Diq/LWO96br17mD7csxX9QNxJXH+2Dj0VqpXV02LS+tJSHoh3Z4QE=);strokeColor=none;strokeWidth=2;spacingTop=-3;spacingBottom=-3;spacingLeft=-3;spacingRight=-3;labelBackgroundColor=none;rounded=0;html=1;whiteSpace=wrap;" parent="44" vertex="1">
          <mxGeometry y="9" width="46" height="30" as="geometry" />
        </mxCell>
        <mxCell id="46" style="vsdxID=128;fillColor=#a0a1a2;gradientColor=none;shape=stencil(tZLdDoIwDIWfZpcjg4mRa8T3WGTA4txINwXf3uFAfkQvSLxre76uaXcQTU3Fao4iYizoC29EbitEjyiKhKo4COsiRDNE00IDL0HfVO7zmnVkF131vXuh9X3JvmuJyMOn5JWdPCmFmpC77yCDs1NgAAMSehZ6OIyDhPpSO20no36Iex2zVhgM2jIrtJrRkkHJsRuGC8nKmWQazuuP8uoei9HkBzqI2+D3UpuvtPo5fzmRC0aHFEJKb7CpvnSUK3k30uwJ);strokeColor=none;strokeWidth=2;spacingTop=-3;spacingBottom=-3;spacingLeft=-3;spacingRight=-3;labelBackgroundColor=none;rounded=0;html=1;whiteSpace=wrap;" parent="44" vertex="1">
          <mxGeometry width="46" height="11" as="geometry" />
        </mxCell>
        <mxCell id="47" style="vsdxID=129;fillColor=#FFFFFF;gradientColor=none;fillOpacity=20;strokeOpacity=20;shape=stencil(vVLREoIgEPwaHnFQ0sZns/9gEpWJxDko8e/DMNO0Xprp7W53j7vjFtFM16zlKCLagDrzThSmRvSAokg0NQdhXIRojmhWKuAVqGtT+Lxlg3KILuo2vGB93S6I06EoIr0HyCM7ei2Dk2Ng0iZeCv0T2IcesfNiMtHJ+LbFzAqNQRlmhGoWYsmg4th1wqVk1YLSHeftCh5nk6LhnzqncUB/2WP1KyEh/9okDRK62XtTPQ22db6l9PupXfDySCmk9Bab8++ecpD3I83v);strokeColor=none;strokeWidth=2;spacingTop=-3;spacingBottom=-3;spacingLeft=-3;spacingRight=-3;labelBackgroundColor=none;rounded=0;html=1;whiteSpace=wrap;" parent="44" vertex="1">
          <mxGeometry width="40" height="39" as="geometry" />
        </mxCell>
        <mxCell id="48" style="vsdxID=130;fillColor=#FFFFFF;gradientColor=none;shape=stencil(nZBLDoAgDERP0z3SIyjew0SURgSD+Lu9kMZoXLhwN9O+tukAlrNpJg1SzDH4QW/URgNYgZTkjA4UkwJUgGXng+6DX1zLfmoymdXo17xh5zmRJ6Q42BWCfc2oJfdAr+Yv+AP9Cb7OJ3H/2JG1HNGz/84klThPVCc=);strokeColor=none;strokeWidth=2;spacingTop=-3;spacingBottom=-3;spacingLeft=-3;spacingRight=-3;labelBackgroundColor=none;rounded=0;html=1;whiteSpace=wrap;" parent="44" vertex="1">
          <mxGeometry x="11" y="4" width="31" height="3" as="geometry" />
        </mxCell>
        <mxCell id="49" style="vsdxID=131;fillColor=#59b4d9;gradientColor=none;shape=stencil(lVHREoIgEPwaHnEQtHw3+w8mUZlInIOS/j4InVKnqd7udm/3Fg6x0nR8EIgSY0GfxShr2yF2QJTKvhMgra8QqxArGw2iBX3t69gPPEyG6qJvwcFFXUpI0FByj31eJHnxRI5xnMPJs+DWNIGNYvbM0iSjC9dph8PcSYNBW26l7hec4tAK7LfhRvF2ChcpMwoxbOBP+Xb7Tb4Z+vrmvxOSHxL64vX7jVQqHu+dX1/LQ/HSrHoA);strokeColor=none;strokeWidth=2;spacingTop=-3;spacingBottom=-3;spacingLeft=-3;spacingRight=-3;labelBackgroundColor=none;rounded=0;html=1;whiteSpace=wrap;" parent="44" vertex="1">
          <mxGeometry x="2" y="1" width="7" height="7" as="geometry" />
        </mxCell>
        <mxCell id="50" style="vsdxID=132;fillColor=#FFFFFF;gradientColor=none;shape=stencil(nZLdDoIwDIWfprdLtzqQa8T3IGHIIjIyhj9vL3MxgkYQ70677zRdeoDSrspbBQI7Z81RXXThKqAdCKGbSlntBgWUAaWlsepgTd8UoW5zT3p1Mmc/4Rp8MmI89i6Bt9DhiI96H/BaNyOcEhbT7zhOULlq8Az8ufQMLCKG08kbzjD+bnj+6E9cblnC16yzYFi80CBe1y11XYdwjN/f0zC0QpIouwM=);strokeColor=none;strokeWidth=2;spacingTop=-3;spacingBottom=-3;spacingLeft=-3;spacingRight=-3;labelBackgroundColor=none;rounded=0;html=1;whiteSpace=wrap;" parent="44" vertex="1">
          <mxGeometry x="3" y="3" width="6" height="5" as="geometry" />
        </mxCell>
        <mxCell id="PjaEeioHZseRxcnawcMe-192" value="&lt;font style=&quot;font-size: 12px ; font-family: &amp;#34;segoe ui&amp;#34; ; color: #000000 ; direction: ltr ; letter-spacing: 0px ; line-height: 120% ; opacity: 1&quot;&gt;Database&lt;br&gt;&lt;/font&gt;" style="verticalAlign=middle;align=center;vsdxID=29;fillColor=none;gradientColor=none;shape=stencil(nZBLDoAgDERP0z3SIyjew0SURgSD+Lu9kMZoXLhwN9O+tukAlrNpJg1SzDH4QW/URgNYgZTkjA4UkwJUgGXng+6DX1zLfmoymdXo17xh5zmRJ6Q42BWCfc2oJfdAr+Yv+AP9Cb7OJ3H/2JG1HNGz/84klThPVCc=);strokeColor=none;labelBackgroundColor=none;rounded=0;html=1;whiteSpace=wrap;" parent="1" vertex="1">
          <mxGeometry x="617" y="252" width="95" height="19" as="geometry" />
        </mxCell>
        <mxCell id="PjaEeioHZseRxcnawcMe-193" value="" style="shape=image;imageAspect=0;aspect=fixed;verticalLabelPosition=bottom;verticalAlign=top;fontSize=12;strokeColor=#000000;image=https://cdn.freebiesupply.com/logos/large/2x/nodejs-icon-logo-png-transparent.png;" parent="1" vertex="1">
          <mxGeometry x="362.25" y="320.71" width="30.5" height="33.6" as="geometry" />
        </mxCell>
        <mxCell id="PjaEeioHZseRxcnawcMe-195" style="vsdxID=301;fillColor=none;gradientColor=none;labelBackgroundColor=none;rounded=0;strokeColor=none;html=1;whiteSpace=wrap;" parent="1" vertex="1">
          <mxGeometry x="560.65" y="311.54" width="47.35000000000002" height="46.920000000000044" as="geometry" />
        </mxCell>
        <mxCell id="PjaEeioHZseRxcnawcMe-196" value="" style="verticalAlign=top;align=center;vsdxID=302;fillColor=#FFFFFF;gradientColor=none;shape=stencil(vVHLDsIgEPwajiQI6RfU+h8bu22JCGRB2/69kG1iazx58DazM/vIjjBtmiCi0CplCjecbZ8nYc5Ca+snJJsLEqYTph0C4Ujh4XvmEaqzont41gkL96naodXKrGF6YSfQtUi0OXXDVlqPfJNP6usotUhYbJIUMmQb/GGrAxpRljVycDBuc1hKM2LclX8/7H9nFfB+82Cd45T2+mcspcSRmu4F);strokeColor=#7f7f7f;labelBackgroundColor=none;rounded=0;html=1;whiteSpace=wrap;" parent="PjaEeioHZseRxcnawcMe-195" vertex="1">
          <mxGeometry width="46" height="46" as="geometry" />
        </mxCell>
        <mxCell id="PjaEeioHZseRxcnawcMe-197" value="" style="shape=image;imageAspect=0;aspect=fixed;verticalLabelPosition=bottom;verticalAlign=top;fontSize=12;strokeColor=#000000;image=https://user-images.githubusercontent.com/3613230/41752586-476b0b24-7596-11e8-95fe-8fd3faa21e8a.png;" parent="PjaEeioHZseRxcnawcMe-195" vertex="1">
          <mxGeometry x="-7.649999999999977" y="-1.6099999999999568" width="55" height="48.53" as="geometry" />
        </mxCell>
        <mxCell id="PjaEeioHZseRxcnawcMe-198" value="" style="shape=image;imageAspect=0;aspect=fixed;verticalLabelPosition=bottom;verticalAlign=top;strokeColor=#000000;image=https://static-00.iconduck.com/assets.00/virtual-machines-icon-512x464-nlf7gddb.png;" parent="1" vertex="1">
          <mxGeometry x="431" y="228.43" width="26" height="23.57" as="geometry" />
        </mxCell>
        <mxCell id="PjaEeioHZseRxcnawcMe-199" value="" style="shape=image;imageAspect=0;aspect=fixed;verticalLabelPosition=bottom;verticalAlign=top;strokeColor=#000000;image=https://static-00.iconduck.com/assets.00/virtual-machines-icon-512x464-nlf7gddb.png;" parent="1" vertex="1">
          <mxGeometry x="617" y="228.43" width="26" height="23.57" as="geometry" />
        </mxCell>
        <mxCell id="PjaEeioHZseRxcnawcMe-201" style="vsdxID=134;edgeStyle=none;startArrow=block;endArrow=classicThin;startSize=2;endSize=2;strokeColor=#0078d7;spacingTop=0;spacingBottom=0;spacingLeft=0;spacingRight=0;verticalAlign=middle;html=1;labelBackgroundColor=#ffffff;rounded=0;exitX=1;exitY=0.386;exitDx=0;exitDy=0;exitPerimeter=0;endFill=1;" parent="1" source="153" edge="1">
          <mxGeometry relative="1" as="geometry">
            <Array as="points">
              <mxPoint x="180" y="450" />
            </Array>
            <mxPoint x="179.80500000000004" y="331.82399999999996" as="sourcePoint" />
            <mxPoint x="179.50039486100033" y="181.5" as="targetPoint" />
          </mxGeometry>
        </mxCell>
        <mxCell id="PjaEeioHZseRxcnawcMe-202" value="" style="strokeWidth=1;html=1;shape=mxgraph.flowchart.annotation_2;align=left;labelPosition=right;pointerEvents=1;fontSize=12;dashed=1;strokeColor=#A680B8;" parent="1" vertex="1">
          <mxGeometry x="290" y="250" width="32" height="280" as="geometry" />
        </mxCell>
        <mxCell id="PjaEeioHZseRxcnawcMe-203" style="vsdxID=134;edgeStyle=none;startArrow=block;endArrow=none;startSize=2;endSize=2;strokeColor=#0078d7;spacingTop=0;spacingBottom=0;spacingLeft=0;spacingRight=0;verticalAlign=middle;html=1;labelBackgroundColor=#ffffff;rounded=0;entryX=1.005;entryY=0.605;entryDx=0;entryDy=0;entryPerimeter=0;exitX=0;exitY=0.5;exitDx=0;exitDy=0;exitPerimeter=0;" parent="1" source="PjaEeioHZseRxcnawcMe-202" target="153" edge="1">
          <mxGeometry relative="1" as="geometry">
            <Array as="points">
              <mxPoint x="290" y="475" />
            </Array>
            <mxPoint x="233" y="618" as="sourcePoint" />
            <mxPoint x="233.5" y="387" as="targetPoint" />
          </mxGeometry>
        </mxCell>
        <mxCell id="PjaEeioHZseRxcnawcMe-204" value="&lt;div style=&quot;text-align: left&quot;&gt;&lt;span style=&quot;color: rgb(63 , 63 , 63) ; font-family: &amp;#34;segoe ui&amp;#34; ; font-size: 11px ; letter-spacing: 0px&quot;&gt;deploy&lt;/span&gt;&lt;/div&gt;&lt;div style=&quot;text-align: left&quot;&gt;&lt;span style=&quot;color: rgb(63 , 63 , 63) ; font-family: &amp;#34;segoe ui&amp;#34; ; font-size: 11px ; letter-spacing: 0px&quot;&gt;artifacts&lt;/span&gt;&lt;/div&gt;" style="verticalAlign=middle;align=center;vsdxID=275;fillColor=none;gradientColor=none;shape=stencil(nZBLDoAgDERP0z3SIyjew0SURgSD+Lu9kMZoXLhwN9O+tukAlrNpJg1SzDH4QW/URgNYgZTkjA4UkwJUgGXng+6DX1zLfmoymdXo17xh5zmRJ6Q42BWCfc2oJfdAr+Yv+AP9Cb7OJ3H/2JG1HNGz/84klThPVCc=);strokeColor=none;labelBackgroundColor=none;rounded=0;html=1;whiteSpace=wrap;" parent="1" vertex="1">
          <mxGeometry x="243" y="444.37" width="47" height="28" as="geometry" />
        </mxCell>
        <mxCell id="x6dMfpFJ78mqeGFsQGTt-174" value="&lt;div&gt;&lt;span style=&quot;color: rgb(63 , 63 , 63) ; font-family: &amp;#34;segoe ui&amp;#34; ; font-size: 11px ; letter-spacing: 0px&quot;&gt;Load balancer&lt;/span&gt;&lt;/div&gt;" style="verticalAlign=middle;align=right;vsdxID=275;fillColor=none;gradientColor=none;shape=stencil(nZBLDoAgDERP0z3SIyjew0SURgSD+Lu9kMZoXLhwN9O+tukAlrNpJg1SzDH4QW/URgNYgZTkjA4UkwJUgGXng+6DX1zLfmoymdXo17xh5zmRJ6Q42BWCfc2oJfdAr+Yv+AP9Cb7OJ3H/2JG1HNGz/84klThPVCc=);strokeColor=none;labelBackgroundColor=none;rounded=0;html=1;whiteSpace=wrap;" vertex="1" parent="1">
          <mxGeometry x="200" y="285" width="47" height="28" as="geometry" />
        </mxCell>
        <mxCell id="x6dMfpFJ78mqeGFsQGTt-175" value="" style="shape=image;imageAspect=0;aspect=fixed;verticalLabelPosition=bottom;verticalAlign=top;strokeColor=#000000;image=https://static-00.iconduck.com/assets.00/virtual-machines-icon-512x464-nlf7gddb.png;" vertex="1" parent="1">
          <mxGeometry x="330" y="426.43" width="26" height="23.57" as="geometry" />
        </mxCell>
      </root>
    </mxGraphModel>
  </diagram>
</mxfile>
